<?xml version="1.0" encoding="utf-8"?>
<!-- Generator: Adobe Illustrator 25.3.1, SVG Export Plug-In . SVG Version: 6.00 Build 0)  -->
<svg version="1.1" xmlns="http://www.w3.org/2000/svg" xmlns:xlink="http://www.w3.org/1999/xlink" x="0px" y="0px"
	 viewBox="0 0 400 400" style="enable-background:new 0 0 400 400;" xml:space="preserve">
<style type="text/css">
	.st0{fill:#FFFFFF;}
</style>
<g id="layer_2">
</g>
<g id="layer_1">
	<rect class="st0" width="400" height="400"/>
	<g>
		<path d="M327.45,118.48L59.41,218.97c-0.65,0.24-0.87,1.06-0.43,1.6l49.27,60.64c0.19,0.24,0.48,0.38,0.79,0.38h157.36
			c0.42,0,0.8-0.26,0.95-0.66l61.4-161.13C329.07,118.98,328.27,118.17,327.45,118.48z"/>
		<path d="M337.61,122.42l3.64,60.85c0.01,0.22-0.05,0.45-0.17,0.63l-61.28,90.43c-0.68,1-2.23,0.2-1.8-0.93l57.65-151.28
			C336.03,121.09,337.54,121.32,337.61,122.42z"/>
	</g>
</g>
</svg>
